<svg width="167" height="79" viewBox="0 0 167 79" fill="none" xmlns="http://www.w3.org/2000/svg">
<path d="M153.933 39.1333C153.933 41.0444 154.089 42.6667 154.4 44H150.2C150.244 43.7333 150.267 43.4444 150.267 43.1333C150.311 42.8222 150.378 42.5111 150.467 42.2C149.267 43.6222 147.511 44.3333 145.2 44.3333C142.889 44.3333 141.067 43.4667 139.733 41.7333C138.711 40.4444 138.2 38.7778 138.2 36.7333V31.5333C138.2 29.9333 138.067 28.3111 137.8 26.6667L142 25.8667C141.644 27.3333 141.467 28.9556 141.467 30.7333V36.7333C141.467 38.3333 141.711 39.5111 142.2 40.2667C143.044 41.6 144.333 42.2667 146.067 42.2667C149.133 42.2667 150.667 40.4222 150.667 36.7333V31.5333C150.667 29.9333 150.511 28.3111 150.2 26.6667L154.4 25.8667C154.089 27.3333 153.933 28.9556 153.933 30.7333V39.1333ZM159.919 44C160.186 42.4 160.319 40.7778 160.319 39.1333V24.8667C160.319 23.3111 160.186 21.6889 159.919 20L164.119 19.2C163.764 20.6667 163.586 22.2889 163.586 24.0667V39.1333C163.586 40.8667 163.764 42.4889 164.119 44H159.919Z" fill="#F472B6"/>
<path d="M134.228 26.9843C134.098 26.6176 133.775 26.3528 133.39 26.2977L121.625 24.6067L127.023 12.5599C127.167 12.2357 127.138 11.8595 126.944 11.5608C126.751 11.263 126.42 11.0829 126.065 11.0829H109.635C109.07 11.0829 108.607 11.53 108.587 12.0936L107.83 33.5024C107.811 34.0373 108.199 34.5005 108.729 34.5766L116.908 35.7538L105.965 55.5097C105.708 55.9748 105.838 56.5566 106.269 56.868C106.454 57.0016 106.668 57.0652 106.882 57.0652C107.166 57.0652 107.448 56.9497 107.653 56.726L134.013 28.045C134.276 27.7588 134.359 27.3509 134.228 26.9843Z" fill="#FCE7F3"/>
<path d="M6.46667 40.1333C6.46667 41.7778 6.64444 43.4 7 45H2.8C3.06667 43.4 3.2 41.7778 3.2 40.1333V32.4C2.4 32.4 1.6 32.5778 0.8 32.9333V29.9333C1.6 30.2444 2.4 30.4 3.2 30.4V27.8C3.2 25.7111 3.71111 24.0444 4.73333 22.8C6.15556 21.0667 7.95556 20.2 10.1333 20.2C11.2889 20.2 12.3333 20.4222 13.2667 20.8667V24.6H13.1333C12.4222 23 11.4 22.2 10.0667 22.2C8.77778 22.2 7.77778 22.8 7.06667 24C6.66667 24.8444 6.46667 26.1111 6.46667 27.8V30.4C8.11111 30.4 9.68889 30.2444 11.2 29.9333V32.9333C9.68889 32.5778 8.11111 32.4 6.46667 32.4V40.1333ZM32.4052 40.1333C32.4052 41.5111 32.5608 43.1333 32.8719 45H28.6719C28.7608 44.7333 28.8052 44.4444 28.8052 44.1333C28.8497 43.8222 28.8941 43.5111 28.9385 43.2C27.6941 44.6222 26.0497 45.3333 24.0052 45.3333C21.383 45.3333 19.2719 44.3778 17.6719 42.4667C16.1163 40.5556 15.3385 38.4444 15.3385 36.1333C15.3385 33.7778 16.0941 31.6444 17.6052 29.7333C19.2052 27.8222 21.2274 26.8667 23.6719 26.8667C26.1163 26.8667 27.8497 27.5333 28.8719 28.8667C28.8719 28.4667 28.8052 28.0667 28.6719 27.6667L32.8719 26.8667C32.5608 28.7333 32.4052 30.3556 32.4052 31.7333V40.1333ZM27.7385 30.8667C26.7608 29.5333 25.4941 28.8667 23.9385 28.8667C22.4274 28.8667 21.2274 29.5333 20.3385 30.8667C19.3608 32.0222 18.8719 33.7556 18.8719 36.0667C18.8719 38.3778 19.3608 40.1333 20.3385 41.3333C21.2274 42.6222 22.4274 43.2667 23.9385 43.2667C25.4941 43.2667 26.7385 42.6444 27.6719 41.4C28.6497 40.1556 29.1385 38.3778 29.1385 36.0667C29.1385 33.7556 28.6719 32.0222 27.7385 30.8667ZM38.4934 45C38.76 43.4 38.8934 41.7778 38.8934 40.1333V25.8667C38.8934 24.3111 38.76 22.6889 38.4934 21L42.6934 20.2C42.3378 21.6667 42.16 23.2889 42.16 25.0667V29.1333C43.4045 27.6222 45.1822 26.8667 47.4934 26.8667C49.8489 26.8667 51.7156 27.7111 53.0934 29.4C54.1156 30.6444 54.6267 32.3111 54.6267 34.4V40.1333C54.6267 41.8667 54.7822 43.4889 55.0934 45H50.8934C51.2045 43.4 51.36 41.7778 51.36 40.1333V34.4C51.36 32.7556 51.1156 31.6 50.6267 30.9333C49.8267 29.5556 48.5378 28.8667 46.76 28.8667C44.9822 28.8667 43.6934 29.5556 42.8934 30.9333C42.4045 31.6 42.16 32.7556 42.16 34.4V40.1333C42.16 41.8667 42.3378 43.4889 42.6934 45H38.4934ZM60.6125 45C60.8792 43.4 61.0125 41.7778 61.0125 40.1333V32.5333C61.0125 30.9333 60.8792 29.3111 60.6125 27.6667L64.8125 26.8667C64.6792 27.3111 64.5681 28.0222 64.4792 29C65.6347 27.5778 67.0792 26.8667 68.8125 26.8667C69.7903 26.8667 70.7236 27.0889 71.6125 27.5333V31.2H71.4792C70.5903 29.6444 69.4792 28.8667 68.1458 28.8667C66.8569 28.8667 65.8125 29.5556 65.0125 30.9333C64.5236 31.6 64.2792 32.7556 64.2792 34.4V40.1333C64.2792 41.8667 64.4569 43.4889 64.8125 45H60.6125ZM90.8572 40.1333C90.8572 42.0444 91.0127 43.6667 91.3238 45H87.1238C87.1683 44.7333 87.1905 44.4444 87.1905 44.1333C87.2349 43.8222 87.3016 43.5111 87.3905 43.2C86.1905 44.6222 84.4349 45.3333 82.1238 45.3333C79.8127 45.3333 77.9905 44.4667 76.6572 42.7333C75.6349 41.4444 75.1238 39.7778 75.1238 37.7333V32.5333C75.1238 30.9333 74.9905 29.3111 74.7238 27.6667L78.9238 26.8667C78.5683 28.3333 78.3905 29.9556 78.3905 31.7333V37.7333C78.3905 39.3333 78.6349 40.5111 79.1238 41.2667C79.9683 42.6 81.2572 43.2667 82.9905 43.2667C86.0572 43.2667 87.5905 41.4222 87.5905 37.7333V32.5333C87.5905 30.9333 87.4349 29.3111 87.1238 27.6667L91.3238 26.8667C91.0127 28.3333 90.8572 29.9556 90.8572 31.7333V40.1333ZM96.843 45C97.1096 43.4 97.243 41.7778 97.243 40.1333V25.8667C97.243 24.3111 97.1096 22.6889 96.843 21L101.043 20.2C100.687 21.6667 100.51 23.2889 100.51 25.0667V40.1333C100.51 41.8667 100.687 43.4889 101.043 45H96.843Z" fill="#F472B6"/>
</svg>
